<svg width="42" height="42" viewBox="0 0 42 42" fill="none" xmlns="http://www.w3.org/2000/svg" class=" dark"><g clip-path="url(#clip0_5562_8821)"><path d="M12.5017 7.64469C11.5121 7.23321 10.3781 7.38098 9.52689 8.03231C8.67571 8.68365 8.23667 9.73961 8.37516 10.8024L11.0607 31.4128C11.1992 32.4756 11.8942 33.3838 12.8838 33.7953C13.8735 34.2068 15.0075 34.059 15.8587 33.4077L32.365 20.7767C33.2162 20.1254 33.6552 19.0694 33.5167 18.0066C33.3783 16.9438 32.6833 16.0356 31.6936 15.6241L12.5017 7.64469Z" fill="url(#paint0_linear_5562_8821)" stroke="url(#paint1_linear_5562_8821)" stroke-width="6" stroke-linejoin="round"></path><path d="M9.65643 12.0247L31.5241 15.1058L17.9219 32.5032L9.65643 12.0247Z" fill="white"></path><path d="M9.65643 12.0247L31.5241 15.1058L17.9219 32.5032L9.65643 12.0247Z" fill="url(#paint2_linear_5562_8821)"></path><g style="mix-blend-mode:screen"><path d="M9.65643 12.0247L31.5241 15.1058L17.9219 32.5032L9.65643 12.0247Z" fill="white"></path><path d="M9.65643 12.0247L31.5241 15.1058L17.9219 32.5032L9.65643 12.0247Z" fill="url(#paint3_linear_5562_8821)"></path></g><ellipse cx="13.5" cy="33" rx="8.25" ry="8.25" fill="url(#paint4_linear_5562_8821)"></ellipse><ellipse rx="5.25" ry="5.25" transform="matrix(1 0 0 -1 8.25 7.5)" fill="url(#paint5_linear_5562_8821)"></ellipse><ellipse rx="6.75" ry="6.75" transform="matrix(1 0 0 -1 35.25 15.75)" fill="url(#paint6_linear_5562_8821)"></ellipse></g><defs><linearGradient id="paint0_linear_5562_8821" x1="17.4034" y1="5.78267" x2="1.79724" y2="17.8052" gradientUnits="userSpaceOnUse"><stop stop-color="#FFF100"></stop><stop offset="1" stop-color="#EDCF00"></stop></linearGradient><linearGradient id="paint1_linear_5562_8821" x1="17.4034" y1="5.78267" x2="1.79724" y2="17.8052" gradientUnits="userSpaceOnUse"><stop stop-color="#FFF100"></stop><stop offset="1" stop-color="#EDCF00"></stop></linearGradient><linearGradient id="paint2_linear_5562_8821" x1="5.76685" y1="8.67849" x2="35.9528" y2="31.721" gradientUnits="userSpaceOnUse"><stop stop-color="#14181E"></stop><stop offset="1" stop-color="#20232A"></stop></linearGradient><linearGradient id="paint3_linear_5562_8821" x1="5.76685" y1="8.67849" x2="35.9528" y2="31.721" gradientUnits="userSpaceOnUse"><stop stop-color="#14181E"></stop><stop offset="1" stop-color="#20232A"></stop></linearGradient><linearGradient id="paint4_linear_5562_8821" x1="5.25024" y1="35.1888" x2="21.4222" y2="35.1888" gradientUnits="userSpaceOnUse"><stop stop-color="#6B37A9"></stop><stop offset="1" stop-color="#AC64FF"></stop></linearGradient><linearGradient id="paint5_linear_5562_8821" x1="0.000150051" y1="6.64285" x2="10.2914" y2="6.64285" gradientUnits="userSpaceOnUse"><stop stop-color="#6B37A9"></stop><stop offset="1" stop-color="#AC64FF"></stop></linearGradient><linearGradient id="paint6_linear_5562_8821" x1="0.000192923" y1="8.54081" x2="13.2318" y2="8.54081" gradientUnits="userSpaceOnUse"><stop stop-color="#6B37A9"></stop><stop offset="1" stop-color="#AC64FF"></stop></linearGradient><clipPath id="clip0_5562_8821"><rect width="42" height="42" fill="white"></rect></clipPath></defs></svg>